<?xml version="1.0" standalone="no"?>
<!DOCTYPE svg PUBLIC "-//W3C//DTD SVG 20010904//EN"
 "http://www.w3.org/TR/2001/REC-SVG-20010904/DTD/svg10.dtd">
<svg version="1.0" xmlns="http://www.w3.org/2000/svg"
 width="512.000000pt" height="512.000000pt" viewBox="0 0 512.000000 512.000000"
 preserveAspectRatio="xMidYMid meet">
<metadata>
Created by potrace 1.16, written by Peter Selinger 2001-2019
</metadata>
<g transform="translate(0.000000,512.000000) scale(0.100000,-0.100000)"
fill="#000000" stroke="none">
<path d="M2200 5095 c-248 -50 -422 -215 -463 -440 l-13 -70 -75 -15 c-156
-33 -276 -116 -333 -232 -70 -143 -76 -395 -15 -643 23 -94 89 -298 99 -305 3
-3 17 -32 31 -65 l24 -60 7 115 c7 132 28 292 58 433 71 346 336 496 621 351
l51 -26 52 33 c157 99 311 166 440 189 81 15 212 8 301 -15 223 -59 421 -242
526 -485 28 -65 50 -148 89 -336 28 -137 55 -260 60 -274 8 -23 8 -23 9 10 1
35 23 118 41 155 36 74 100 250 109 299 31 171 -8 373 -115 586 -130 261 -380
500 -696 670 -140 74 -209 98 -343 120 -140 23 -363 26 -465 5z"/>
<path d="M2396 1068 c-86 -176 -154 -328 -151 -335 3 -8 39 -64 80 -123 l75
-109 -105 -239 c-58 -132 -105 -242 -105 -246 0 -3 167 -6 370 -6 204 0 370 4
370 8 0 4 -47 115 -105 245 l-105 238 42 62 c23 34 59 85 80 114 21 29 38 57
38 63 0 17 -312 650 -320 650 -4 0 -77 -145 -164 -322z"/>
</g>
</svg>
